<mxfile host="app.diagrams.net" agent="Mozilla/5.0 (Windows NT 10.0; Win64; x64) AppleWebKit/537.36 (KHTML, like Gecko) Chrome/131.0.0.0 Safari/537.36" version="26.0.5">
  <diagram name="Page-1" id="PeAwt3Szpt-fgfYEEmzh">
    <mxGraphModel dx="1987" dy="1774" grid="1" gridSize="10" guides="1" tooltips="1" connect="1" arrows="1" fold="1" page="1" pageScale="1" pageWidth="850" pageHeight="1100" math="0" shadow="0">
      <root>
        <mxCell id="0" />
        <mxCell id="1" parent="0" />
        <mxCell id="49tyuxRNwfxDkExX5rBj-1" value="4 Transforms" style="whiteSpace=wrap;strokeWidth=2;" vertex="1" parent="1">
          <mxGeometry y="276" width="151" height="54" as="geometry" />
        </mxCell>
        <mxCell id="49tyuxRNwfxDkExX5rBj-2" value="4.1 Basic Transforms" style="whiteSpace=wrap;strokeWidth=2;" vertex="1" parent="1">
          <mxGeometry x="278" width="206" height="54" as="geometry" />
        </mxCell>
        <mxCell id="49tyuxRNwfxDkExX5rBj-3" value="4.2 Special Matrix Transforms and Operations" style="whiteSpace=wrap;strokeWidth=2;" vertex="1" parent="1">
          <mxGeometry x="251" y="84" width="260" height="78" as="geometry" />
        </mxCell>
        <mxCell id="49tyuxRNwfxDkExX5rBj-4" value="4.3 Quaternions" style="whiteSpace=wrap;strokeWidth=2;" vertex="1" parent="1">
          <mxGeometry x="294" y="192" width="174" height="54" as="geometry" />
        </mxCell>
        <mxCell id="49tyuxRNwfxDkExX5rBj-5" value="4.4 Vertex Blending" style="whiteSpace=wrap;strokeWidth=2;" vertex="1" parent="1">
          <mxGeometry x="281" y="276" width="200" height="54" as="geometry" />
        </mxCell>
        <mxCell id="49tyuxRNwfxDkExX5rBj-6" value="4.5 Morphing" style="whiteSpace=wrap;strokeWidth=2;" vertex="1" parent="1">
          <mxGeometry x="304.5" y="360" width="153" height="54" as="geometry" />
        </mxCell>
        <mxCell id="49tyuxRNwfxDkExX5rBj-7" value="4.6 Geometry Cache Playback" style="whiteSpace=wrap;strokeWidth=2;" vertex="1" parent="1">
          <mxGeometry x="251" y="444" width="260" height="78" as="geometry" />
        </mxCell>
        <mxCell id="49tyuxRNwfxDkExX5rBj-8" value="4.7 Projections" style="whiteSpace=wrap;strokeWidth=2;" vertex="1" parent="1">
          <mxGeometry x="297" y="552" width="168" height="54" as="geometry" />
        </mxCell>
        <mxCell id="49tyuxRNwfxDkExX5rBj-9" value="57" style="curved=1;startArrow=none;endArrow=block;rounded=0;noEdgeStyle=1;orthogonal=1;edgeStyle=orthogonalEdgeStyle;" edge="1" parent="1" source="49tyuxRNwfxDkExX5rBj-1" target="49tyuxRNwfxDkExX5rBj-2">
          <mxGeometry x="0.0027" relative="1" as="geometry">
            <Array as="points">
              <mxPoint x="163" y="284.14285714285717" />
              <mxPoint x="239" y="27" />
            </Array>
            <mxPoint as="offset" />
          </mxGeometry>
        </mxCell>
        <mxCell id="49tyuxRNwfxDkExX5rBj-10" value="70" style="curved=1;startArrow=none;endArrow=block;rounded=0;noEdgeStyle=1;orthogonal=1;edgeStyle=orthogonalEdgeStyle;" edge="1" parent="1" source="49tyuxRNwfxDkExX5rBj-1" target="49tyuxRNwfxDkExX5rBj-3">
          <mxGeometry relative="1" as="geometry">
            <Array as="points">
              <mxPoint x="165" y="290.42857142857144" />
              <mxPoint x="239" y="123" />
            </Array>
          </mxGeometry>
        </mxCell>
        <mxCell id="49tyuxRNwfxDkExX5rBj-11" value="76" style="curved=1;startArrow=none;endArrow=block;rounded=0;noEdgeStyle=1;orthogonal=1;edgeStyle=orthogonalEdgeStyle;" edge="1" parent="1" source="49tyuxRNwfxDkExX5rBj-1" target="49tyuxRNwfxDkExX5rBj-4">
          <mxGeometry relative="1" as="geometry">
            <Array as="points">
              <mxPoint x="167" y="296.7142857142857" />
              <mxPoint x="239" y="219" />
            </Array>
          </mxGeometry>
        </mxCell>
        <mxCell id="49tyuxRNwfxDkExX5rBj-12" value="84" style="curved=1;startArrow=none;endArrow=block;rounded=0;noEdgeStyle=1;orthogonal=1;edgeStyle=orthogonalEdgeStyle;" edge="1" parent="1" source="49tyuxRNwfxDkExX5rBj-1" target="49tyuxRNwfxDkExX5rBj-5">
          <mxGeometry relative="1" as="geometry">
            <Array as="points">
              <mxPoint x="169" y="303" />
              <mxPoint x="239" y="303" />
            </Array>
          </mxGeometry>
        </mxCell>
        <mxCell id="49tyuxRNwfxDkExX5rBj-13" value="87" style="curved=1;startArrow=none;endArrow=block;rounded=0;noEdgeStyle=1;orthogonal=1;edgeStyle=orthogonalEdgeStyle;" edge="1" parent="1" source="49tyuxRNwfxDkExX5rBj-1" target="49tyuxRNwfxDkExX5rBj-6">
          <mxGeometry relative="1" as="geometry">
            <Array as="points">
              <mxPoint x="167" y="309.2857142857143" />
              <mxPoint x="239" y="387" />
            </Array>
          </mxGeometry>
        </mxCell>
        <mxCell id="49tyuxRNwfxDkExX5rBj-14" value="92" style="curved=1;startArrow=none;endArrow=block;rounded=0;noEdgeStyle=1;orthogonal=1;edgeStyle=orthogonalEdgeStyle;" edge="1" parent="1" source="49tyuxRNwfxDkExX5rBj-1" target="49tyuxRNwfxDkExX5rBj-7">
          <mxGeometry relative="1" as="geometry">
            <Array as="points">
              <mxPoint x="165" y="315.57142857142856" />
              <mxPoint x="239" y="483" />
            </Array>
          </mxGeometry>
        </mxCell>
        <mxCell id="49tyuxRNwfxDkExX5rBj-15" value="92" style="curved=1;startArrow=none;endArrow=block;rounded=0;noEdgeStyle=1;orthogonal=1;edgeStyle=orthogonalEdgeStyle;" edge="1" parent="1" source="49tyuxRNwfxDkExX5rBj-1" target="49tyuxRNwfxDkExX5rBj-8">
          <mxGeometry relative="1" as="geometry">
            <Array as="points">
              <mxPoint x="163" y="321.85714285714283" />
              <mxPoint x="239" y="579" />
            </Array>
          </mxGeometry>
        </mxCell>
      </root>
    </mxGraphModel>
  </diagram>
</mxfile>
